<?xml version="1.0" encoding="UTF-8"?>
<svg width="68px" height="60px" viewBox="0 0 68 60" version="1.1" xmlns="http://www.w3.org/2000/svg" xmlns:xlink="http://www.w3.org/1999/xlink">
    <!-- Generator: Sketch 59 (86127) - https://sketch.com -->
    <title>social/behance</title>
    <desc>Created with Sketch.</desc>
    <defs>
        <filter x="-10.0%" y="-9.4%" width="120.0%" height="118.8%" filterUnits="objectBoundingBox" id="filter-1">
            <feOffset dx="0" dy="2" in="SourceAlpha" result="shadowOffsetOuter1"></feOffset>
            <feGaussianBlur stdDeviation="12" in="shadowOffsetOuter1" result="shadowBlurOuter1"></feGaussianBlur>
            <feColorMatrix values="0 0 0 0 0   0 0 0 0 0   0 0 0 0 0  0 0 0 0.5 0" type="matrix" in="shadowBlurOuter1" result="shadowMatrixOuter1"></feColorMatrix>
            <feMerge>
                <feMergeNode in="shadowMatrixOuter1"></feMergeNode>
                <feMergeNode in="SourceGraphic"></feMergeNode>
            </feMerge>
        </filter>
    </defs>
    <g id="Design" stroke="none" stroke-width="1" fill="none" fill-rule="evenodd">
        <g id="Profile-card-page" transform="translate(-830.000000, -652.000000)" fill="#2D354C">
            <g id="card" filter="url(#filter-1)" transform="translate(470.000000, 216.000000)">
                <g id="social-media" transform="translate(60.000000, 451.000000)">
                    <g id="social/behance" transform="translate(321.000000, 0.000000)">
                        <path d="M19.2367,9.26105 C22.0469,9.26105 24.3332,11.62093 24.3332,14.5217 L24.3332,14.5217 L24.3332,14.6258 C24.3332,14.9012 24.1099,15.1245 23.8344,15.1245 L23.8344,15.1245 L16.6881,15.1245 C16.9479,16.3659 17.9916,17.2972 19.2367,17.2972 C19.8958,17.2972 20.4758,17.0797 20.9488,16.6198 C20.9886,16.5811 21.0411,16.5585 21.0966,16.5586 L21.0966,16.5586 L23.6018,16.5649 C23.7605,16.5652 23.8655,16.7313 23.7963,16.874 C23.7009,17.0707 23.5935,17.2614 23.4752,17.444 C22.5264,18.9082 20.9419,19.7824 19.2367,19.7824 C16.4265,19.7824 14.1401,17.4224 14.1401,14.5217 C14.1401,11.62098 16.4264,9.26105 19.2367,9.26105 Z M8.4784,6.21759 C10.50745,6.21759 12.1958,7.82976 12.2295,9.85848 C12.242,10.6166 12.0246,11.32371 11.64381,11.91642 C12.7372,12.6896 13.451,13.9657 13.4451363,15.4051 C13.4355,17.7537 11.49001,19.6361 9.14141,19.6361 L9.14141,19.6361 L2.813591,19.6361 C2.548262,19.6361 2.33313,19.421 2.33313,19.1556 L2.33313,19.1556 L2.33313,6.69805 C2.33313,6.43272 2.548262,6.21759 2.813591,6.21759 L2.813591,6.21759 Z M9.19654,13.624 L4.81831,13.624 L4.81831,17.1509 L9.19659,17.1509 C10.16893,17.1509 10.95998,16.3598 10.95998,15.3875 C10.95998,14.4151 10.16889,13.624 9.19654,13.624 L9.19654,13.624 Z M19.2367,11.74623 C18.3248,11.74623 17.5211,12.2459 17.0539,13.0009 L17.0539,13.0009 L21.4195,13.0009 C20.9523,12.2459 20.1485,11.74623 19.2367,11.74623 Z M8.52677,8.70277 L4.81831,8.70277 L4.81831,11.13886 L8.52677,11.13886 C9.19842,11.13886 9.74481,10.59242 9.74481,9.92082 C9.74481,9.24917 9.19837,8.70277 8.52677,8.70277 L8.52677,8.70277 Z M21.3543,6.74573 C21.5652,6.74573 21.7362,6.91671 21.7362,7.12762 L21.7362,8.26164 C21.7362,8.4726 21.5652,8.64353 21.3543,8.64353 L16.8339,8.64353 C16.623,8.64353 16.452,8.47255 16.452,8.26164 L16.452,7.12762 C16.452,6.91671 16.623,6.74573 16.8339,6.74573 L21.3543,6.74573 Z" id="Combined-Shape"></path>
                    </g>
                </g>
            </g>
        </g>
    </g>
</svg>